# xmcd
#
# Track frame offsets:
#	150
#	12094
#	31753
#	67099
#	98131
#	126895
#	169478
#	213796
#	237000
#
# Disc length: 3332 seconds
#
# Revision: 1
# Processed by: cddbd v1.5.1PL0 Copyright (c) Steve Scherf et al.
# Submitted via: CDex 1.50Beta5
#
DISCID=700d0209
DTITLE=Various Artist - クラシック名曲集2
DYEAR=1900
DGENRE=Classical
TTITLE0=チャイコフスキー/(白鳥の湖)より「白鳥たちの踊り
TTITLE1=ベートーヴェン/「エリーゼのために」
TTITLE2=メンデルスゾーン/ヴァイオリン協奏曲作品64
TTITLE3=チャイコフスキー/(くるみ割り人形)より(花のワルツ」
TTITLE4=ベートーヴェン/ロマンス ト長調 作品40
TTITLE5=ドビュッシー/牧神の午後への前奏曲
TTITLE6=リムスキー・コルサコフ/「若い王子と王女」
TTITLE7=チャイコフスキー/「白鳥の湖」より「ワルツ」
TTITLE8=オッフェンバック/(ホフマン物語)より「ホフマンの舟歌」
EXTD=
EXTT0=
EXTT1=
EXTT2=
EXTT3=
EXTT4=
EXTT5=
EXTT6=
EXTT7=
EXTT8=
PLAYORDER=
